<?xml version="1.0" encoding="iso-8859-1"?>
<!-- Generator: Adobe Illustrator 21.0.2, SVG Export Plug-In . SVG Version: 6.00 Build 0)  -->
<svg version="1.1" xmlns="http://www.w3.org/2000/svg" xmlns:xlink="http://www.w3.org/1999/xlink" x="0px" y="0px"
	 viewBox="0 0 64 64" style="enable-background:new 0 0 64 64;" xml:space="preserve">
<g id="crocus">
</g>
<g id="cactus">
</g>
<g id="anemone_1_">
</g>
<g id="twinflower">
</g>
<g id="_angelonia">
</g>
<g id="magnolia">
</g>
<g id="rosella">
</g>
<g id="amaryllis">
</g>
<g id="lily_calla">
</g>
<g id="cleome">
</g>
<g id="euphorbia">
</g>
<g id="rafflesia">
</g>
<g id="krisan">
</g>
<g id="orchid">
</g>
<g id="anemone">
</g>
<g id="gaura">
</g>
<g id="poppy">
</g>
<g id="bluestar">
</g>
<g id="hydrangea">
</g>
<g id="leadwort">
</g>
<g id="anthurium">
</g>
<g id="blossom">
</g>
<g id="lily">
</g>
<g id="tulip">
</g>
<g id="sunflower">
</g>
<g id="jasmine">
</g>
<g id="bell">
</g>
<g id="rose">
</g>
<g id="zinnia">
</g>
<g id="buttercup">
	<g>
		<path d="M61.7017,22.1851c-1.4126-4.2154-6.375-10.523-11.2486-11.2198c-0.9321-0.1338-2.0879-0.0908-3.2871,0.4444
			c0.0786-1.3106-0.2876-2.4073-0.7397-3.232c-2.3672-4.3173-10.0318-6.7339-14.3882-6.582
			c-4.4419-0.1558-12.0972,2.2647-14.4644,6.582c-0.4521,0.8247-0.8188,1.9219-0.7392,3.2329
			c-1.1992-0.5346-2.3545-0.5776-3.2866-0.4458c-4.8736,0.6968-9.8365,7.0044-11.2237,11.1519
			c-1.7163,4.1025-2.1411,12.1182,1.0664,15.855c0.6157,0.7173,1.5244,1.4453,2.7896,1.8315
			c-0.792,0.8286-1.1841,1.7549-1.3633,2.5572c-1.1245,5.0278,4.1435,12.3188,7.354,14.9399
			c2.4028,2.2749,8.6592,5.1059,13.7065,5.1059c1.3399,0,2.5953-0.1997,3.67-0.6621c0.8466-0.3642,1.7714-0.9931,2.4546-2.0283
			c0.6831,1.0352,1.6079,1.6641,2.4541,2.0283c1.0756,0.4629,2.3315,0.6626,3.6723,0.6626c5.0435,0,11.2871-2.8222,13.646-5.0581
			c3.2442-2.6518,8.4697-9.9316,7.3364-14.999c-0.1777-0.7949-0.5571-1.7119-1.3247-2.5361
			c1.2832-0.3828,2.2027-1.1182,2.8238-1.8418C63.8169,34.2354,63.3926,26.2192,61.7017,22.1851z M19.3276,9.1392
			c1.9405-3.5381,8.9214-5.688,12.7105-5.5445c3.7495-0.1504,10.6938,2.0059,12.6343,5.5445
			c0.8457,1.542,0.6469,3.1748-0.607,4.9917l0,0l-6.8208,9.7993c-1.2783-0.7129-2.7143-1.1734-4.2426-1.3145v-8.9341
			c0-0.5522-0.4478-1-1-1c-0.5523,0-1,0.4478-1,1v8.9341c-1.5474,0.1426-2.9991,0.6143-4.2896,1.3418l-6.7778-9.8266
			C18.6807,12.314,18.4819,10.6812,19.3276,9.1392z M40.8042,33.3677c0,4.8535-3.9487,8.8017-8.8022,8.8017
			c-4.856,0-8.8062-3.9482-8.8062-8.8017c0-4.854,3.9502-8.8028,8.8062-8.8028C36.8555,24.5649,40.8042,28.5137,40.8042,33.3677z
			 M4.9082,36.6689c-2.6289-3.0625-2.186-10.3222-0.7134-13.8481c1.1909-3.5537,5.6416-9.3052,9.6358-9.876
			c1.7422-0.2456,3.1997,0.5122,4.4594,2.3247l0,0l6.7769,9.8247c-1.1846,0.9937-2.145,2.2403-2.8169,3.6504l-8.2554-2.3349
			c-0.5332-0.1509-1.0844,0.1591-1.2343,0.6904c-0.1504,0.5312,0.1586,1.084,0.6904,1.2344l8.1108,2.2939
			c-0.2304,0.8765-0.3657,1.7915-0.3657,2.7393c0,0.5517,0.0547,1.0898,0.1353,1.6196L9.7925,37.8589
			C7.6509,38.3936,6.0532,38.0034,4.9082,36.6689z M28.7568,59.9072c-4,1.7207-12.3095-1.3135-15.2656-4.1074
			c-3.2412-2.6499-7.5757-9.1875-6.7226-13.0029c0.3344-1.4951,1.4506-2.461,3.4116-2.9517
			c0.0361-0.0093,0.063-0.0337,0.0971-0.0464l11.5342-2.8701c0.584,1.6631,1.5606,3.1387,2.8233,4.3193l-5.0967,6.6617
			c-0.3355,0.4384-0.252,1.0659,0.187,1.4018c0.1811,0.1387,0.3945,0.2056,0.6069,0.2056c0.3003,0,0.5977-0.1353,0.795-0.3926
			l5.0878-6.6499c1.4097,0.8984,3.0362,1.4824,4.7872,1.6441v11.8901C31.002,57.9819,30.2676,59.2568,28.7568,59.9072z
			 M50.4541,55.8481c-2.9014,2.7461-11.209,5.7779-15.207,4.0591c-1.5108-0.6499-2.2451-1.9253-2.2451-3.8984V44.1187
			c1.7236-0.1587,3.3251-0.7295,4.7197-1.6045l5.0923,6.6557c0.1972,0.2573,0.4946,0.3926,0.7954,0.3926
			c0.2119,0,0.4253-0.0669,0.6064-0.2056c0.439-0.3359,0.5225-0.9633,0.187-1.4018l-5.0927-6.6563
			c1.2915-1.1909,2.2905-2.6884,2.8818-4.3799l11.5308,2.8799c0,0,0.0004,0.0005,0.0009,0.0005
			c1.9727,0.4937,3.0967,1.4707,3.4356,2.9868C58.0205,46.6377,53.7266,53.1694,50.4541,55.8481z M59.0923,36.6689
			c-1.145,1.334-2.7427,1.7247-4.8823,1.1905c-0.0005-0.0005-0.0005-0.0005-0.0005-0.0005h-0.001l-11.5376-2.8818
			c0.0791-0.5264,0.1333-1.0611,0.1333-1.6094c0-0.9478-0.1353-1.8628-0.3652-2.7393l8.1103-2.2939
			c0.5318-0.1504,0.8408-0.7032,0.6904-1.2344c-0.1503-0.5317-0.7036-0.8413-1.2343-0.6904l-8.2549,2.3349
			c-0.6792-1.4262-1.6524-2.686-2.855-3.6855l6.8145-9.7896c1.2597-1.8125,2.7192-2.5683,4.4599-2.3247
			c3.9947,0.5713,8.4448,6.3223,9.6612,9.9444C61.2778,26.3467,61.7212,33.6064,59.0923,36.6689z"/>
		<path d="M32.002,27.6484c-3.1534,0-5.7188,2.5655-5.7188,5.7193c0,3.1513,2.5654,5.7153,5.7188,5.7153
			c3.1518,0,5.7158-2.564,5.7158-5.7153C37.7178,30.2139,35.1538,27.6484,32.002,27.6484z M32.002,37.083
			c-2.0503,0-3.7188-1.6665-3.7188-3.7153c0-2.0508,1.6685-3.7193,3.7188-3.7193c2.0488,0,3.7158,1.6685,3.7158,3.7193
			C35.7178,35.4165,34.0508,37.083,32.002,37.083z"/>
	</g>
</g>
</svg>
