<?xml version="1.0" encoding="iso-8859-1"?>
<!-- Generator: Adobe Illustrator 21.0.2, SVG Export Plug-In . SVG Version: 6.00 Build 0)  -->
<svg version="1.1" xmlns="http://www.w3.org/2000/svg" xmlns:xlink="http://www.w3.org/1999/xlink" x="0px" y="0px"
	 viewBox="0 0 64 64" style="enable-background:new 0 0 64 64;" xml:space="preserve">
<g id="crocus">
</g>
<g id="cactus">
</g>
<g id="anemone_1_">
</g>
<g id="twinflower">
</g>
<g id="_angelonia">
	<g>
		<path d="M58.4746,24.3232c1.2871-3.0878,1.3442-5.7988,0.1455-7.7002c-1.0229-1.622-2.8711-2.5156-5.2046-2.5156
			c-3.479,0-7.6445,1.9278-11.7226,5.3233c2.7534-6.6494,2.4052-11.6172,0.8735-14.3174c-1.0347-1.8242-2.6885-2.8281-4.6558-2.8281
			c-1.8593,0-3.8989,0.9023-5.9394,2.6191c-2.0391-1.7168-4.0776-2.6191-5.936-2.6191c-1.9629,0-3.6133,1-4.6485,2.8154
			c-1.5298,2.6836-1.8891,7.6338,0.8438,14.2685c-4.0552-3.3545-8.1958-5.2597-11.6485-5.2597
			c-2.3335,0-4.1816,0.8926-5.2036,2.5146c-1.1987,1.9004-1.1406,4.6114,0.147,7.6992c-3.4966,2.2266-5.0801,5.0137-4.3599,7.7373
			c1.0694,4.043,7.0454,6.4668,14.7495,5.9219c-6.7578,4.3731-9.2255,9.4112-8.4951,12.75c0.6719,3.0742,3.8301,4.7696,8.396,4.4092
			c1.0567,4.1348,3.3667,6.5732,6.2857,6.5732h0.0005c3.6835,0,7.8496-4.1113,9.8994-12.0332
			c2.0483,7.9229,6.2138,12.0332,9.8974,12.0332c2.919,0,5.229-2.4384,6.2857-6.5732c4.5634,0.3652,7.7246-1.334,8.3974-4.4092
			c0.73-3.3388-1.7383-8.3769-8.4966-12.75c7.7051,0.5469,13.6807-1.8779,14.75-5.9219
			C63.5557,29.3369,61.9717,26.5498,58.4746,24.3232z M60.9019,31.5498c-0.5943,2.2461-4.1006,4.5127-10.5953,4.5127
			c-2.292,0-4.7797-0.2871-7.393-0.8535c-0.5015-0.1113-0.9986,0.1777-1.1607,0.6611c-0.1616,0.4844,0.0674,1.0117,0.5313,1.2246
			c9.0874,4.1758,13.0884,9.8067,12.3442,13.21c-0.4819,2.2021-3.1777,3.2617-7.0947,2.7598
			c-0.5186-0.0596-1.0039,0.2802-1.1074,0.7949c-0.7378,3.666-2.4302,5.8554-4.5274,5.8554c-3.4863,0-7.791-5.541-8.9028-15.8085
			c-0.0547-0.5079-0.4834-0.8926-0.9941-0.8926c-0.5108,0-0.939,0.3847-0.9942,0.8926
			c-1.1138,10.2685-5.4199,15.8085-8.9057,15.8085c-2.0977,0-3.7901-2.1894-4.5279-5.8554
			c-0.104-0.5147-0.5908-0.8545-1.1074-0.7949c-3.9141,0.5019-6.6108-0.5567-7.0933-2.7598
			c-0.7446-3.4043,3.2559-9.0342,12.3428-13.21c0.4639-0.2129,0.6929-0.7402,0.5313-1.2246
			c-0.1612-0.4834-0.6587-0.7724-1.1607-0.6611c-2.6133,0.5664-5.1011,0.8535-7.3931,0.8535
			c-6.4941,0-10.0004-2.2666-10.5947-4.5137c-0.5215-1.9726,1.0073-4.1435,4.1948-5.956C7.75,25.334,7.9282,24.7656,7.7021,24.293
			c-1.333-2.7901-1.5576-5.1358-0.6323-6.6026c0.8242-1.3066,2.3648-1.581,3.5122-1.581c4.128,0,9.5254,3.2617,14.439,8.7256
			c0.3437,0.3808,0.9219,0.4414,1.3354,0.1367c0.4146-0.3037,0.5308-0.8731,0.2686-1.3154
			c-5.0815-8.5831-5.062-14.8262-3.501-17.5645c0.4697-0.8242,1.356-1.8066,2.9112-1.8066c1.5502,0,3.3676,0.9296,5.2544,2.6865
			c0.3837,0.3574,0.979,0.3574,1.3627,0c1.8887-1.7578,3.7066-2.6865,5.2583-2.6865c1.5591,0,2.4463,0.9873,2.9165,1.8154
			c1.5699,2.7676,1.5684,9.0703-3.6035,17.7236c-0.2646,0.4424-0.1489,1.0137,0.2666,1.3194
			c0.416,0.3037,0.9952,0.2431,1.3389-0.1416c4.957-5.5694,10.4102-8.8946,14.5864-8.8946c1.1475,0,2.688,0.2744,3.5127,1.5821
			c0.9258,1.4687,0.7022,3.8134-0.6303,6.6035c-0.2261,0.4726-0.0479,1.041,0.4082,1.2998
			C59.894,27.4063,61.4233,29.5771,60.9019,31.5498z"/>
		<path d="M46.8828,26.96l-9.0342,2.8232c-0.9199-1.8945-2.7251-3.2764-4.8774-3.6084v-9.4746c0-0.5527-0.4478-1-1-1
			c-0.5523,0-1,0.4473-1,1v9.4746c-2.1372,0.3301-3.9312,1.6963-4.8565,3.5703l-9.0419-2.8262
			c-0.5249-0.165-1.0884,0.128-1.253,0.6563c-0.1645,0.5264,0.1289,1.0879,0.6563,1.2519l9.042,2.8262
			c-0.0474,0.3174-0.0801,0.6387-0.0801,0.9688c0,1.8242,0.7524,3.4736,1.9604,4.6611l-5.5205,7.6934
			c-0.3217,0.4482-0.2192,1.0732,0.2295,1.3955c0.1768,0.1269,0.3804,0.1875,0.5821,0.1875c0.3115,0,0.6181-0.1446,0.8134-0.417
			l5.521-7.6944c0.8867,0.4512,1.8863,0.711,2.9473,0.711c1.062,0,2.0625-0.2598,2.9502-0.7119l5.521,7.6953
			c0.1953,0.2724,0.5019,0.417,0.8135,0.417c0.2016,0,0.4052-0.0606,0.582-0.1875c0.2725-0.1953,0.4175-0.503,0.417-0.8145
			c0-0.2012-0.0611-0.4053-0.1875-0.581l-5.5205-7.6944c1.208-1.1865,1.9604-2.8369,1.9604-4.6601
			c0-0.3155-0.0302-0.6231-0.0737-0.9268l9.0459-2.8271c0.5268-0.1641,0.8208-0.7256,0.6562-1.252
			C47.9712,27.0879,47.4087,26.7949,46.8828,26.96z M27.438,32.6221c0-2.4991,2.0337-4.5323,4.5332-4.5323
			c2.5015,0,4.5361,2.0332,4.5361,4.5323c0,2.5019-2.0346,4.5371-4.5361,4.5371C29.4717,37.1592,27.438,35.124,27.438,32.6221z"/>
		<path d="M31.9712,29.1201c-0.5523,0-1,0.4473-1,1v0.0195c0,0.5528,0.4477,0.9903,1,0.9903c0.5522,0,1-0.457,1-1.0098
			C32.9712,29.5674,32.5234,29.1201,31.9712,29.1201z"/>
		<path d="M29.7788,31.6221c-0.5522,0-1,0.4472-1,1v0.0215c0,0.5527,0.4478,0.9892,1,0.9892c0.5523,0,1-0.458,1-1.0107
			C30.7788,32.0693,30.3311,31.6221,29.7788,31.6221z"/>
		<path d="M34.166,31.6221c-0.5522,0-1,0.4472-1,1v0.0215c0,0.5527,0.4478,0.9892,1,0.9892c0.5523,0,1-0.458,1-1.0107
			C35.166,32.0693,34.7183,31.6221,34.166,31.6221z"/>
		<path d="M31.9712,34.126c-0.5523,0-1,0.4472-1,1v0.0195c0,0.5527,0.4477,0.9902,1,0.9902c0.5522,0,1-0.457,1-1.0097
			C32.9712,34.5732,32.5234,34.126,31.9712,34.126z"/>
	</g>
</g>
<g id="magnolia">
</g>
<g id="rosella">
</g>
<g id="amaryllis">
</g>
<g id="lily_calla">
</g>
<g id="cleome">
</g>
<g id="euphorbia">
</g>
<g id="rafflesia">
</g>
<g id="krisan">
</g>
<g id="orchid">
</g>
<g id="anemone">
</g>
<g id="gaura">
</g>
<g id="poppy">
</g>
<g id="bluestar">
</g>
<g id="hydrangea">
</g>
<g id="leadwort">
</g>
<g id="anthurium">
</g>
<g id="blossom">
</g>
<g id="lily">
</g>
<g id="tulip">
</g>
<g id="sunflower">
</g>
<g id="jasmine">
</g>
<g id="bell">
</g>
<g id="rose">
</g>
<g id="zinnia">
</g>
<g id="buttercup">
</g>
</svg>
