<svg id="Layer_1" data-name="Layer 1" xmlns="http://www.w3.org/2000/svg" viewBox="0 0 128 128"><title>AUTUMN LEAF-16</title><path d="M107.341,45.508c-.749.1-17.842,2.352-31.3,8.764-2.436-16.243-10.558-33.278-10.914-34.02a1.25,1.25,0,0,0-2.254,0c-.356.742-8.479,17.777-10.914,34.021C38.5,47.859,21.408,45.6,20.659,45.508a1.25,1.25,0,0,0-1.273,1.807c.387.761,9.354,18.243,21,28.647A102.367,102.367,0,0,0,27.043,91.928a1.251,1.251,0,0,0,1.045,1.937h.021c.806-.014,19.86-.408,31.318-6.716A22.4,22.4,0,0,0,62.75,84.9v22.6a1.25,1.25,0,0,0,2.5,0V82.418a1.148,1.148,0,0,0,.028-.167,1.224,1.224,0,0,0-.028-.147V76.37l27.4-16.635a1.25,1.25,0,0,0-1.3-2.137L65.25,73.446V48.667a1.25,1.25,0,0,0-2.5,0V73.446L36.648,57.6a1.25,1.25,0,0,0-1.3,2.137L62.75,76.37v5.163a19.378,19.378,0,0,1-4.527,3.425c-8.556,4.71-22.116,5.971-27.666,6.3a96.98,96.98,0,0,1,12.54-14.4,1.249,1.249,0,0,0-.035-1.88C33.687,67.068,25.7,53.606,22.788,48.361c5.508.911,19.2,3.573,29.6,8.912a1.249,1.249,0,0,0,1.811-.958c1.594-12.792,7.341-26.9,9.8-32.5,2.458,5.6,8.205,19.7,9.8,32.5a1.249,1.249,0,0,0,1.811.958c10.406-5.34,24.1-8,29.6-8.912C102.3,53.6,94.318,67.063,84.938,74.976a1.249,1.249,0,0,0-.035,1.88,96.925,96.925,0,0,1,12.54,14.4c-4.675-.275-15.038-1.21-23.295-4.315a1.25,1.25,0,0,0-.881,2.34c11.376,4.278,26.006,4.573,26.623,4.584h.021a1.251,1.251,0,0,0,1.045-1.937A102.363,102.363,0,0,0,87.614,75.962c11.645-10.4,20.613-27.887,21-28.647a1.25,1.25,0,0,0-1.273-1.807Z"/></svg>