<svg id="Layer_1" data-name="Layer 1" xmlns="http://www.w3.org/2000/svg" viewBox="0 0 128 128"><title>AUTUMN LEAF-4</title><path d="M19.763,95.038a1.25,1.25,0,0,0,1.723-.395C29,82.668,39.934,72.794,51.437,64.874a1.2,1.2,0,0,0,.244.136L74.93,72.477a1.25,1.25,0,1,0,.764-2.38L54.021,63.136A193.2,193.2,0,0,1,82.009,48.029l8.453,2.323a1.237,1.237,0,0,0,.332.045,1.25,1.25,0,0,0,.33-2.456l-5.443-1.5c7.49-3.15,13.543-5.214,16.819-6.26-2.828,2.995-6.139,7.581-7.015,13.289-.23,1.5-.427,3.182-.635,4.967C93.684,68.428,92.088,82.1,81.907,88.432c-9.213,5.728-26.874.764-35.652-10.023a1.25,1.25,0,0,0-1.939,1.578,37.9,37.9,0,0,0,27.92,13.364,20.757,20.757,0,0,0,10.992-2.8c11.2-6.964,12.88-21.332,14.1-31.823.206-1.762.4-3.426.623-4.877C99.362,44.7,108.2,38.424,108.288,38.362a1.251,1.251,0,0,0-.441-2.245c-25.558-5.723-44.868-4.158-57.4,4.65C39.872,48.2,38.358,57.994,38.221,59.087a26.892,26.892,0,0,0,1.107,11.87A97.1,97.1,0,0,0,19.368,93.315,1.25,1.25,0,0,0,19.763,95.038ZM40.7,59.4c.448-3.557,3.309-11.054,11.182-16.586,10.979-7.716,28.418-9.494,50.6-5.242a208.986,208.986,0,0,0-20.793,7.878,1.238,1.238,0,0,0-.59.259c-4.077,1.8-8.475,3.892-13.02,6.281L69.436,39.92a1.25,1.25,0,0,0-2.484-.279L65.405,53.421A161.971,161.971,0,0,0,41.411,69.241,24.522,24.522,0,0,1,40.7,59.4Z"/></svg>