<?xml version="1.0" encoding="iso-8859-1"?>
<!-- Generator: Adobe Illustrator 21.0.2, SVG Export Plug-In . SVG Version: 6.00 Build 0)  -->
<svg version="1.1" xmlns="http://www.w3.org/2000/svg" xmlns:xlink="http://www.w3.org/1999/xlink" x="0px" y="0px"
	 viewBox="0 0 64 64" style="enable-background:new 0 0 64 64;" xml:space="preserve">
<g id="crocus">
</g>
<g id="cactus">
</g>
<g id="anemone_1_">
</g>
<g id="twinflower">
</g>
<g id="_angelonia">
</g>
<g id="magnolia">
</g>
<g id="rosella">
</g>
<g id="amaryllis">
</g>
<g id="lily_calla">
</g>
<g id="cleome">
</g>
<g id="euphorbia">
</g>
<g id="rafflesia">
</g>
<g id="krisan">
</g>
<g id="orchid">
</g>
<g id="anemone">
</g>
<g id="gaura">
</g>
<g id="poppy">
</g>
<g id="bluestar">
</g>
<g id="hydrangea">
</g>
<g id="leadwort">
</g>
<g id="anthurium">
</g>
<g id="blossom">
</g>
<g id="lily">
</g>
<g id="tulip">
</g>
<g id="sunflower">
</g>
<g id="jasmine">
</g>
<g id="bell">
	<g>
		<path d="M55.3359,19.6826C54.9941,7.9976,45.7158,1.7373,36.498,1.5977c-9.3593,0.142-18.8349,6.6245-18.8349,18.7402v2.0683
			c-1.6963-4.0131-3.6836-6.3642-10.5215-6.3642c-0.415,0-0.8496,0.0083-1.3047,0.0244c-0.2842,0.0103-0.5508,0.1411-0.7324,0.3594
			c-0.1816,0.2187-0.2617,0.5044-0.2207,0.7856c1.3584,9.2422,4.7832,9.8662,11,10.9995c0.5615,0.1021,1.1611,0.2139,1.7793,0.333
			v23.7256c-2.126-3.4365-4.8672-5.0591-8.4668-5.0591c-1.9951,0-4.3115,0.4756-7.5127,1.542
			c-0.4795,0.1597-0.7637,0.6524-0.6641,1.1475c0.1016,0.4961,0.545,0.835,1.0596,0.7983c4.8877-0.3833,6.2148,2.2476,7.7324,5.337
			c1.4658,2.9843,3.128,6.3671,8.3321,6.3671h7.1591c5.2061,0,6.8682-3.3828,8.335-6.3676
			c1.5186-3.0899,2.8496-5.7246,7.7324-5.3365c0.0313,0.0025,0.0606,0.0025,0.0918,0.003c0.5381-0.0274,1.0069-0.4458,1.0069-1
			c0-0.482-0.3409-0.8843-0.794-0.979c-3.1543-1.0454-5.4463-1.5118-7.4228-1.5118c-3.587,0-6.3204,1.6114-8.4493,5.0342
			l0.0235-32.1518c0.2265-6.5567,5.664-10.4199,10.6875-10.7437c4.9306,0.3179,10.25,4.0528,10.6601,10.3584
			c-4.4316,1.6709-7.5976,5.9429-7.5976,10.9512v14.2822c0,0.4014,0.2402,0.7637,0.6093,0.9204
			c0.3692,0.1568,0.7969,0.0782,1.086-0.2016l5.7666-5.5743l3.415,5.3907c0.1836,0.2895,0.502,0.4648,0.8448,0.4648h0.0009
			c0.3428-0.0005,0.6621-0.1767,0.8448-0.4668l3.3955-5.3867l5.7656,5.5728c0.1904,0.1835,0.4414,0.2807,0.6953,0.2807
			c0.1318,0,0.2646-0.0259,0.3906-0.0796C62.7598,45.7046,63,45.3423,63,44.9409V30.6587C63,25.625,59.8018,21.3354,55.3359,19.6826
			z M16.2422,26.2432c-5.6885-1.0371-7.9961-1.4571-9.1983-8.2012c0.0332,0,0.0655,0,0.0977,0c6.7695,0,7.5488,2.0581,9.6299,7.5591
			c0.0976,0.2588,0.1982,0.5234,0.3008,0.7939C16.7891,26.3428,16.5127,26.2925,16.2422,26.2432z M34.252,49.2104
			c0.7119,0,1.4814,0.0718,2.3408,0.2227c-2.5244,1.189-3.6875,3.5571-4.751,5.7197c-1.3838,2.8169-2.5791,5.2495-6.5391,5.2495
			h-7.1591c-3.9581,0-5.1534-2.4321-6.5372-5.249c-1.0625-2.1631-2.2255-4.5312-4.75-5.7202
			c0.8594-0.1509,1.628-0.2227,2.3399-0.2227c3.6435,0,6.0449,1.9644,8.0176,6.542c0.6777,1.7046,2.333,2.7637,4.3203,2.7637
			l0.1465-0.0049l0.2324,0.0049c1.9892,0,3.6445-1.0596,4.3076-2.7373C28.2051,51.1748,30.6064,49.2104,34.252,49.2104z
			 M36.5723,7.3491c-0.0391-0.0029-0.0782-0.0029-0.1172,0c-5.9219,0.3491-12.3594,4.9097-12.628,12.708L23.7998,55.813
			c-0.4687,0.4385-1.1143,0.7031-1.8867,0.7031l-0.2315-0.0029l-0.1474,0.0029c-0.7627,0-1.3994-0.2598-1.8711-0.6948V20.3379
			c0-11.3262,8.7432-16.6172,16.8349-16.7402c7.8125,0.1181,16.1758,5.0317,16.8086,15.5356
			c-0.6572-0.1147-1.3281-0.1865-2.0175-0.1865c-0.7383,0-1.459,0.0766-2.1602,0.208C48.4238,11.9248,42.2666,7.6846,36.5723,7.3491
			z M61,42.5835l-4.9551-4.7896c-0.2168-0.2094-0.5156-0.3115-0.8154-0.2734c-0.2988,0.0361-0.5654,0.2046-0.7256,0.4595
			l-3.208,5.0888l-3.2256-5.0908c-0.1611-0.2539-0.4277-0.4223-0.7265-0.458c-0.0391-0.0044-0.0792-0.0068-0.1182-0.0068
			c-0.2578,0-0.5078,0.0996-0.6953,0.2812l-4.9541,4.7891V30.6587c0-5.355,4.3574-9.7119,9.7129-9.7119
			c5.3545,0,9.7109,4.3569,9.7109,9.7119V42.5835z"/>
		<path d="M51.2891,23.7617c-3.0928,0-5.7881,1.9595-6.7071,4.8755c-0.166,0.5269,0.127,1.0884,0.6534,1.2539
			c0.5302,0.168,1.0888-0.126,1.2548-0.6533c0.6543-2.0791,2.583-3.4761,4.7989-3.4761c2.2109,0,4.1386,1.3975,4.7978,3.4776
			c0.1348,0.4262,0.5283,0.6987,0.9531,0.6987c0.0996,0,0.2012-0.0151,0.3018-0.0469c0.5264-0.167,0.8184-0.729,0.6514-1.2554
			C57.0703,25.7202,54.376,23.7617,51.2891,23.7617z"/>
	</g>
</g>
<g id="rose">
</g>
<g id="zinnia">
</g>
<g id="buttercup">
</g>
</svg>
