<?xml version="1.0" standalone="no"?>
<!DOCTYPE svg PUBLIC "-//W3C//DTD SVG 20010904//EN"
 "http://www.w3.org/TR/2001/REC-SVG-20010904/DTD/svg10.dtd">
<svg version="1.0" xmlns="http://www.w3.org/2000/svg"
 width="834.000000pt" height="299.000000pt" viewBox="0 0 834.000000 299.000000"
 preserveAspectRatio="xMidYMid meet">

<g transform="translate(0.000000,299.000000) scale(0.100000,-0.100000)"
fill="#000000" stroke="none">
<path d="M1247 2500 c-30 -23 -31 -29 -47 -265 -6 -88 -13 -177 -16 -198 l-6
-37 -35 21 c-78 48 -207 17 -266 -64 -51 -69 -70 -127 -75 -232 -5 -115 4
-158 50 -234 77 -127 222 -131 305 -7 27 39 34 45 39 30 32 -104 70 -139 143
-132 59 6 100 33 143 95 l31 47 13 -36 c39 -112 111 -165 211 -155 125 13 230
103 312 266 27 56 53 117 57 136 8 42 18 41 103 -8 65 -39 112 -92 139 -157
19 -46 19 -50 4 -82 -12 -23 -25 -34 -43 -36 -39 -5 -61 35 -58 104 3 63 -13
88 -58 86 -81 -2 -118 -44 -111 -128 8 -100 65 -149 188 -161 79 -8 199 58
226 123 18 42 18 115 0 157 -26 62 -168 167 -228 167 -17 0 -37 19 -21 21 81
6 245 47 265 66 29 26 23 70 -16 109 -19 19 -41 34 -50 34 -9 0 -42 -13 -74
-29 -70 -35 -116 -48 -218 -61 -44 -6 -85 -17 -93 -25 -9 -8 -16 -36 -17 -64
-4 -134 -199 -411 -289 -411 -41 0 -61 19 -75 68 -11 42 -13 181 -2 199 4 6
34 16 66 22 74 14 140 45 166 78 41 52 19 183 -42 257 -37 45 -81 66 -139 66
-37 0 -48 -6 -84 -44 -56 -57 -89 -131 -125 -272 -30 -118 -87 -264 -117 -296
-48 -54 -68 9 -66 217 0 156 3 201 23 415 16 165 21 212 29 256 4 22 4 50 0
61 -19 52 -96 69 -142 33z m543 -506 c17 -44 12 -112 -10 -134 -11 -11 -26
-20 -34 -20 -8 0 -22 -3 -32 -7 -15 -5 -16 -2 -10 33 4 21 15 59 23 84 25 74
46 89 63 44z m-671 -64 c47 -25 53 -210 11 -325 -29 -78 -78 -130 -114 -121
-94 23 -81 330 19 429 29 28 54 34 84 17z"/>
<path d="M2635 2285 c-99 -35 -125 -143 -43 -183 140 -67 335 42 262 147 -34
49 -136 65 -219 36z"/>
<path d="M5199 2177 c-18 -12 -39 -33 -45 -45 -7 -15 -14 -129 -18 -310 -4
-158 -11 -370 -17 -471 -7 -117 -7 -187 -1 -193 20 -20 89 -21 121 -2 l31 18
0 91 c0 49 3 120 7 157 l6 68 34 -21 c45 -28 118 -29 164 -3 45 26 92 90 120
161 32 82 33 238 2 303 -33 69 -55 90 -112 110 -59 20 -104 14 -153 -21 -14
-11 -28 -19 -30 -19 -2 0 0 39 5 86 5 47 6 92 3 100 -9 23 -78 17 -117 -9z
m250 -257 c52 -87 -3 -370 -72 -370 -30 0 -41 9 -62 50 -39 74 -14 272 40 326
34 34 71 31 94 -6z"/>
<path d="M7042 2129 c-19 -4 -47 -19 -62 -34 -40 -38 -97 -150 -115 -226 -41
-166 -156 -341 -243 -370 -39 -13 -87 2 -103 32 -46 87 19 425 85 438 18 3 19
-2 11 -85 -14 -159 -12 -198 8 -202 27 -5 84 38 103 77 23 48 13 158 -19 220
-41 81 -125 113 -196 77 -63 -33 -132 -145 -160 -261 -17 -71 -78 -225 -100
-254 -27 -35 -48 -22 -55 36 -6 43 -1 112 20 295 8 65 -1 83 -52 104 -23 10
-41 11 -65 4 -30 -9 -36 -7 -64 19 -56 55 -120 65 -191 30 -110 -53 -178 -205
-176 -392 1 -152 48 -266 128 -313 49 -29 97 -28 155 1 29 15 81 84 99 129
l10 26 32 -36 c25 -27 44 -37 77 -41 60 -8 102 16 147 84 l35 53 23 -41 c12
-24 38 -56 58 -72 31 -25 48 -30 106 -35 105 -7 179 32 268 141 l31 39 7 -36
c17 -91 70 -168 131 -192 118 -45 269 30 364 180 72 114 133 285 111 311 -28
34 -53 11 -110 -101 -97 -190 -169 -277 -247 -297 -32 -7 -70 26 -83 71 -11
42 -13 181 -2 199 4 6 34 16 67 22 75 14 143 48 169 83 40 56 13 193 -52 261
-46 49 -97 68 -150 56z m78 -135 c13 -33 13 -100 0 -124 -9 -18 -78 -45 -88
-35 -7 6 17 94 38 143 22 48 36 53 50 16z m-1127 -81 c88 -98 -3 -540 -105
-507 -32 10 -45 31 -59 94 -13 62 -6 182 15 272 29 120 103 191 149 141z"/>
<path d="M3119 2080 c-57 -10 -113 -56 -158 -132 -12 -21 -40 -97 -62 -170
-59 -196 -121 -299 -143 -241 -16 40 0 323 20 354 11 18 -17 67 -48 82 -38 19
-86 9 -110 -23 -16 -22 -18 -49 -21 -220 -2 -182 -1 -198 20 -242 38 -84 124
-112 194 -65 19 12 48 46 64 74 17 29 32 52 35 53 3 0 17 -20 32 -45 59 -97
189 -125 268 -58 l30 25 0 -29 c0 -28 -3 -30 -72 -46 -146 -35 -254 -111 -277
-194 -15 -52 11 -126 54 -159 20 -15 41 -24 50 -20 9 3 14 2 11 -3 -7 -11 28
-21 80 -21 92 0 197 65 248 153 26 45 66 170 66 205 0 12 21 47 47 78 25 32
63 81 83 111 44 62 50 56 50 -42 0 -72 12 -86 76 -88 60 -2 85 27 104 124 17
83 55 187 65 177 3 -2 7 -37 10 -76 4 -72 28 -135 59 -161 9 -8 36 -16 61 -19
55 -6 90 15 151 92 42 51 110 176 125 230 11 37 -5 68 -34 64 -22 -3 -28 -13
-72 -108 -34 -75 -96 -155 -120 -155 -19 0 -20 7 -20 110 0 61 3 126 8 147 10
45 -10 68 -59 68 -80 0 -132 -50 -179 -174 -31 -80 -34 -28 -7 117 23 128 23
130 4 149 -37 38 -135 18 -162 -32 -5 -10 -13 -51 -16 -92 -7 -80 -63 -215
-122 -297 l-32 -44 1 99 c0 54 4 140 8 189 5 50 5 100 0 112 -8 23 -70 49 -94
39 -13 -5 -55 29 -55 44 0 13 -64 53 -94 59 -17 4 -47 4 -67 1z m99 -115 c51
-64 54 -236 8 -354 -32 -80 -48 -98 -91 -103 -19 -2 -32 -2 -30 1 3 2 -1 11
-9 20 -24 28 -36 82 -36 160 1 203 91 361 158 276z m-3 -677 c-20 -95 -93
-188 -147 -188 -18 0 -48 36 -48 58 0 52 65 122 137 148 59 21 66 19 58 -18z"/>
<path d="M4930 2010 c-53 -30 -157 -60 -239 -70 -91 -12 -111 -28 -111 -85 0
-49 16 -66 75 -85 157 -49 275 -206 226 -298 -14 -26 -52 -29 -72 -6 -8 10
-16 49 -19 88 -4 61 -8 72 -28 82 -32 16 -89 2 -120 -30 -45 -45 -30 -148 30
-202 41 -38 71 -48 143 -48 60 -1 78 3 124 29 29 16 64 44 77 61 48 63 40 173
-17 239 -37 41 -134 103 -178 111 -51 11 -45 21 22 33 163 32 198 43 213 67
22 33 3 89 -40 115 -38 23 -42 23 -86 -1z"/>
<path d="M1466 803 c-3 -3 -6 -44 -6 -90 0 -67 3 -83 15 -83 12 0 15 16 15 84
0 78 -7 105 -24 89z"/>
<path d="M1696 800 c-1 -3 -2 -41 -2 -85 l1 -80 42 1 c55 1 90 25 98 68 9 44
-8 74 -50 92 -32 13 -84 16 -89 4z m102 -47 c18 -24 15 -50 -8 -73 -28 -28
-60 -26 -61 3 -4 61 -4 83 0 90 5 13 54 -2 69 -20z"/>
<path d="M2050 800 c-5 -3 -9 -42 -9 -86 l1 -80 49 -3 c39 -2 49 1 49 14 0 11
-10 15 -35 15 -31 0 -35 3 -35 25 0 20 5 25 25 25 14 0 25 5 25 10 0 6 -11 10
-25 10 -20 0 -25 5 -25 25 0 22 4 25 36 25 24 0 34 4 32 12 -5 13 -71 19 -88
8z"/>
<path d="M2408 797 c-14 -10 -78 -144 -78 -161 0 -14 26 -4 38 14 9 14 23 20
51 20 31 0 41 -4 46 -20 6 -19 35 -29 35 -12 0 10 -64 160 -72 167 -2 3 -12
-1 -20 -8z m30 -79 c11 -27 10 -28 -18 -28 -33 0 -36 7 -18 45 12 28 18 25 36
-17z"/>
<path d="M2722 794 c-33 -23 -25 -55 20 -79 44 -23 52 -55 14 -55 -14 0 -28 5
-31 10 -9 15 -25 12 -25 -5 0 -19 47 -38 75 -31 30 8 48 42 34 67 -6 12 -17
18 -25 15 -8 -3 -13 -2 -10 3 3 4 -6 13 -19 19 -14 7 -25 16 -25 22 0 17 29
23 45 10 23 -19 39 -1 19 21 -21 23 -42 24 -72 3z"/>
<path d="M3267 804 c-4 -4 -7 -45 -7 -91 0 -67 3 -83 15 -83 11 0 15 12 16 48
l0 47 22 -44 c12 -25 27 -46 33 -48 6 -2 23 20 37 49 l26 53 0 -53 c1 -38 5
-52 14 -49 17 5 17 169 -1 175 -7 2 -24 -23 -43 -65 l-31 -68 -27 58 c-30 63
-44 81 -54 71z"/>
<path d="M3645 802 c-3 -3 -5 -42 -5 -87 l0 -82 52 1 c64 1 82 26 18 26 -37 0
-41 2 -38 23 2 16 11 23 31 25 15 2 27 7 27 12 0 5 -12 10 -27 12 -20 2 -29 9
-31 26 -3 20 1 22 37 22 28 0 39 4 36 13 -5 12 -89 20 -100 9z"/>
<path d="M3948 796 c-2 -6 -4 -45 -3 -86 l0 -75 49 0 c31 0 51 5 54 13 2 8 -8
12 -32 12 -32 0 -36 3 -36 25 0 20 5 25 25 25 34 0 32 18 -2 22 -20 2 -28 9
-28 23 0 16 8 21 38 23 55 5 42 27 -16 28 -25 0 -48 -4 -49 -10z"/>
<path d="M4253 803 c-21 -7 -15 -21 10 -25 20 -3 22 -10 27 -73 3 -45 10 -71
18 -73 9 -1 12 18 12 73 0 69 2 75 21 75 12 0 19 5 17 13 -5 12 -80 19 -105
10z"/>
<path d="M4814 804 c-7 -3 -10 -13 -8 -22 3 -9 6 -45 7 -80 1 -34 7 -62 12
-62 6 0 10 10 10 23 0 34 31 33 51 -2 10 -17 24 -31 31 -31 17 0 16 6 -4 40
-15 26 -15 29 0 45 22 21 21 37 0 64 -17 21 -76 36 -99 25z m70 -39 c20 -21
10 -45 -20 -45 -20 0 -24 5 -24 30 0 33 19 40 44 15z"/>
<path d="M5148 803 c-15 -4 -18 -17 -18 -89 l0 -84 55 0 c41 0 55 4 55 14 0
10 -13 16 -37 18 -30 2 -38 7 -38 23 0 14 8 21 28 23 15 2 27 7 27 12 0 5 -12
10 -27 12 -20 2 -28 9 -28 23 0 16 8 21 38 23 24 2 37 8 34 15 -4 12 -57 18
-89 10z"/>
<path d="M5504 802 c-16 -11 -78 -161 -70 -169 5 -5 15 2 23 15 21 30 87 31
105 2 11 -18 38 -28 38 -15 0 11 -64 151 -74 162 -6 7 -16 9 -22 5z m25 -73
c14 -41 15 -39 -18 -39 -28 0 -28 1 -17 35 13 43 21 44 35 4z"/>
<path d="M5799 797 c-1 -13 -1 -148 0 -158 1 -4 22 -6 48 -5 56 1 74 26 19 26
l-36 0 0 69 c0 52 -4 70 -15 75 -8 3 -15 0 -16 -7z"/>
<path d="M6097 803 c-2 -5 -4 -41 -4 -80 -1 -52 2 -71 11 -66 7 4 7 1 -1 -8
-10 -13 -10 -16 2 -16 12 0 15 17 15 83 0 73 -10 110 -23 87z"/>
<path d="M6338 802 c-25 -5 -22 -20 3 -24 19 -3 22 -10 23 -73 1 -55 4 -70 16
-70 12 0 16 16 18 73 3 64 5 72 22 72 11 0 20 6 20 14 0 14 -53 18 -102 8z"/>
<path d="M6640 801 c0 -5 14 -32 31 -60 21 -33 30 -58 27 -75 -3 -15 0 -27 8
-30 18 -7 24 3 24 43 0 20 6 45 13 56 8 11 22 32 32 48 17 27 17 27 -4 19 -12
-4 -30 -20 -40 -36 l-19 -28 -17 26 c-19 29 -55 53 -55 37z"/>
</g>
</svg>
